<svg xmlns="http://www.w3.org/2000/svg" width="512" height="512"><circle cx="256" cy="256" r="256" fill="#282b30"/><circle cx="253.48" cy="257.61" r="91.15" fill="#951518"/><path d="M129.5 243.93s2.48-59.8 59.35-95.53l.89-.65s.73-.19.57-2l-9.54-15.84-.28-.37s-.68-1.4-2.89 0-63.35 35.62-69.76 112.81c0 0-.31 2 1.42 2.15s18.37 1.5 18.37 1.5 1.68.33 1.87-2.07zm-66.28-5.46s4-93.56 92-147.62c0 0 2.24-.73.78-3.12s-9.19-15.66-9.19-15.66-.74-2.5-3.48-.78S48.58 125.08 40.45 236.8c0 0-.75 2.56 2.39 2.76s16 1.2 16 1.2H62s1 1.02 1.22-2.29zM381.78 270s-2.48 59.8-59.35 95.53l-.89.65s-.73.19-.57 2l9.54 15.82.28.37s.68 1.4 2.89 0 63.32-35.59 69.76-112.79c0 0 .31-2-1.42-2.15S383.66 268 383.66 268s-1.66-.37-1.88 2zm66.28 5.48s-4 93.56-92 147.62c0 0-2.24.73-.78 3.12s9.19 15.66 9.19 15.66.74 2.5 3.48.78 94.73-53.8 102.86-165.52c0 0 .75-2.56-2.39-2.76s-16-1.2-16-1.2h-3.17s-.93-1.01-1.19 2.3zM225.8 302.11l14-80.21a6.79 6.79 0 0 0 .26-2.07q0-4.14-5.43-4.14-1.3 0-3.75.26t-3.75.26q-7.25 0-7.25-7 0-19.92 12.42-19.92a13.94 13.94 0 0 1 3.11.26q4.66.52 4.92.52a6.49 6.49 0 0 0 6-3.75q2.07-3.75 5.17-16.17 9.05-37 48.9-37 18.63 0 30.66 9.06T343 165q0 8.8-5.3 14t-14.1 5.17q-16.3 0-16.3-12.94a14.66 14.66 0 0 1 .78-4.66 14.85 14.85 0 0 0 .26-2.85q0-4.66-6.21-4.66-11.13 0-13.2 13.46l-2.07 13.2a2.87 2.87 0 0 0-.26 1.29q0 3.88 3.88 3.88a6.94 6.94 0 0 0 1.55-.26h1.3a65.32 65.32 0 0 1 12.94-1.63q8 0 8 7.5 0 19.41-11.13 19.41a58.6 58.6 0 0 1-6.21-.26 69.61 69.61 0 0 0-7-.26q-8.54 0-9.57 6.21l-15.27 88q-5.43 32.08-16.3 48.13-16.3 24.32-44 24.32-17.34 0-29.11-10.35T164 346.36a23.28 23.28 0 0 1 6-16.17 19.06 19.06 0 0 1 14.75-6.6 16.82 16.82 0 0 1 11.77 4.66 14.63 14.63 0 0 1 5 11.13 11.53 11.53 0 0 1-1.29 5.17l-2.33 6q0 4.66 6.21 4.66 7.5 0 11.51-8.67t10.18-44.43z" fill="#fefefe"/></svg>